<svg width="71" height="70" viewBox="0 0 71 70" fill="none" xmlns="http://www.w3.org/2000/svg">
<g clip-path="url(#clip0_426_37)">
<path fill-rule="evenodd" clip-rule="evenodd" d="M21.0299 51.7242C20.5703 50.7306 19.7695 49.9298 18.7757 49.4699C11.0407 45.8923 4.92168 40.733 1.65547 37.639C0.11484 36.1796 0.114847 33.8204 1.65547 32.3609C4.92168 29.2668 11.0407 24.1076 18.7757 20.53C19.7695 20.0703 20.5703 19.2695 21.0299 18.2757C24.6076 10.5407 29.7668 4.42168 32.8609 1.15547C34.3204 -0.385159 36.6796 -0.385155 38.139 1.15547C41.233 4.42168 46.3923 10.5407 49.9699 18.2757C50.4298 19.2695 51.2306 20.0703 52.2242 20.5299C59.9594 24.1076 66.0784 29.2668 69.3445 32.3609C70.8852 33.8204 70.8852 36.1796 69.3445 37.639C66.0784 40.733 59.9594 45.8923 52.2242 49.4699C51.2306 49.9298 50.4298 50.7306 49.9699 51.7242C46.3923 59.4594 41.233 65.5784 38.139 68.8445C36.6796 70.3852 34.3204 70.3852 32.8609 68.8445C29.7668 65.5784 24.6076 59.4594 21.0299 51.7242ZM35.5001 47.8655C42.6053 47.8655 48.3655 42.1053 48.3655 35.0001C48.3655 27.8946 42.6053 22.1345 35.5001 22.1345C28.3946 22.1345 22.6346 27.8946 22.6346 35.0001C22.6346 42.1053 28.3946 47.8655 35.5001 47.8655Z" fill="#2124B1"/>
</g>
<defs>
<clipPath id="clip0_426_37">
<rect width="70" height="70" fill="white" transform="translate(0.5)"/>
</clipPath>
</defs>
</svg>
