<svg width="71" height="70" viewBox="0 0 71 70" fill="none" xmlns="http://www.w3.org/2000/svg">
<g clip-path="url(#clip0_426_2)">
<mask id="mask0_426_2" style="mask-type:luminance" maskUnits="userSpaceOnUse" x="0" y="0" width="71" height="70">
<path d="M70.5 0H0.5V70H70.5V0Z" fill="white"/>
</mask>
<g mask="url(#mask0_426_2)">
<path fill-rule="evenodd" clip-rule="evenodd" d="M35.6355 32.1486C34.1845 14.1523 19.12 0 0.750001 0C0.750001 18.2848 14.7714 33.2948 32.6486 34.8645C14.6523 36.3153 0.500001 51.38 0.5 69.7501C18.7848 69.7501 33.7948 55.7287 35.3645 37.8515C36.8153 55.8478 51.88 70 70.2501 70C70.2501 51.7153 56.2288 36.7052 38.3515 35.1354C56.3478 33.6846 70.5 18.62 70.5 0.25C52.2153 0.249999 37.2052 14.2714 35.6355 32.1486ZM35.4991 35.0007L35.5007 35.001L35.5011 34.9991H35.4991V35.0007Z" fill="#2124B1"/>
</g>
</g>
<defs>
<clipPath id="clip0_426_2">
<rect width="70" height="70" fill="white" transform="translate(0.5)"/>
</clipPath>
</defs>
</svg>
