<svg width="71" height="70" viewBox="0 0 71 70" fill="none" xmlns="http://www.w3.org/2000/svg">
<g clip-path="url(#clip0_426_14)">
<mask id="mask0_426_14" style="mask-type:luminance" maskUnits="userSpaceOnUse" x="0" y="0" width="71" height="70">
<path d="M70.5 0H0.5V70H70.5V0Z" fill="white"/>
</mask>
<g mask="url(#mask0_426_14)">
<path fill-rule="evenodd" clip-rule="evenodd" d="M35.498 64.2989C37.8733 67.1496 40.2484 70 44.999 70C55.9344 70 59.0932 55.4554 59.0974 44.5046C59.0974 39.7544 61.9478 37.3793 64.7985 35.0042C67.6493 32.6289 70.5 30.2538 70.5 25.5036C70.5 14.5649 55.9344 11.4021 45.0028 11.4021C40.2527 11.4021 37.8772 8.55159 35.5021 5.70105C33.1268 2.85052 30.7515 0 26.0011 0C15.0617 0 11.8987 14.5649 11.8987 25.4956C11.8987 30.2458 9.04906 32.6209 6.19936 34.996C3.34969 37.3713 0.5 39.7463 0.5 44.4966C0.5 55.4351 15.0617 58.598 25.997 58.598C30.7475 58.598 33.1228 61.4484 35.498 64.2989ZM35.5 47.95C42.6522 47.95 48.45 42.1522 48.45 35C48.45 27.8479 42.6522 22.05 35.5 22.05C28.3479 22.05 22.55 27.8479 22.55 35C22.55 42.1522 28.3479 47.95 35.5 47.95Z" fill="#2124B1"/>
</g>
</g>
<defs>
<clipPath id="clip0_426_14">
<rect width="70" height="70" fill="white" transform="translate(0.5)"/>
</clipPath>
</defs>
</svg>
