<svg width="71" height="70" viewBox="0 0 71 70" fill="none" xmlns="http://www.w3.org/2000/svg">
<g clip-path="url(#clip0_426_39)">
<path fill-rule="evenodd" clip-rule="evenodd" d="M0.5 55.4417C16.655 50.3359 20.1652 53.8457 15.0591 70C24.4937 53.8457 46.5065 53.8457 55.941 70C50.8384 53.8457 54.3489 50.3359 70.5 55.4417C54.3489 46.0075 54.3489 23.9961 70.5 14.5621C54.3489 19.6641 50.8384 16.1541 55.941 0C46.5065 16.1541 24.4937 16.1541 15.0591 0C20.1652 16.1541 16.655 19.6641 0.5 14.5621C16.655 23.9961 16.655 46.0075 0.5 55.4417ZM35.5 47.95C42.6522 47.95 48.45 42.1522 48.45 35C48.45 27.8479 42.6522 22.05 35.5 22.05C28.3479 22.05 22.55 27.8479 22.55 35C22.55 42.1522 28.3479 47.95 35.5 47.95Z" fill="#2124B1"/>
</g>
<defs>
<clipPath id="clip0_426_39">
<rect width="70" height="70" fill="white" transform="translate(0.5)"/>
</clipPath>
</defs>
</svg>
