<svg width="71" height="70" viewBox="0 0 71 70" fill="none" xmlns="http://www.w3.org/2000/svg">
<g clip-path="url(#clip0_426_22)">
<mask id="mask0_426_22" style="mask-type:luminance" maskUnits="userSpaceOnUse" x="0" y="0" width="71" height="70">
<path d="M70.5 0H0.5V70H70.5V0Z" fill="white"/>
</mask>
<g mask="url(#mask0_426_22)">
<path d="M42.7059 4.11753H63.2941C63.8402 4.11753 64.3638 4.33444 64.7499 4.72055C65.136 5.10665 65.3529 5.63032 65.3529 6.17636V26.7646C65.3529 27.3106 65.136 27.8343 64.7499 28.2204C64.3638 28.6065 63.8402 28.8234 63.2941 28.8234H42.7059C42.1599 28.8234 41.6362 28.6065 41.2501 28.2204C40.864 27.8343 40.6471 27.3106 40.6471 26.7646V6.17636C40.6471 5.63032 40.864 5.10665 41.2501 4.72055C41.6362 4.33444 42.1599 4.11753 42.7059 4.11753ZM4.61765 44.2646H25.2059C25.7519 44.2646 26.2756 44.4815 26.6617 44.8676C27.0478 45.2537 27.2647 45.7774 27.2647 46.3234V66.9117C27.2647 67.4577 27.0478 67.9814 26.6617 68.3675C26.2756 68.7536 25.7519 68.9705 25.2059 68.9705H4.61765C4.07161 68.9705 3.54794 68.7536 3.16184 68.3675C2.77573 67.9814 2.55882 67.4577 2.55882 66.9117V46.3234C2.55882 45.7774 2.77573 45.2537 3.16184 44.8676C3.54794 44.4815 4.07161 44.2646 4.61765 44.2646ZM55.8082 41.1681L70.22 65.874C71.0199 67.2472 70.0306 68.9705 68.4412 68.9705H39.6176C38.0282 68.9705 37.039 67.2472 37.8388 65.874L52.2506 41.1681C53.0453 39.8062 55.0135 39.8062 55.8082 41.1681ZM15.9412 1.0293C24.4688 1.0293 31.3824 7.94283 31.3824 16.4705C31.3824 24.9981 24.4688 31.9117 15.9412 31.9117C7.41353 31.9117 0.5 24.9981 0.5 16.4705C0.5 7.94283 7.41353 1.0293 15.9412 1.0293Z" fill="#2124B1"/>
</g>
</g>
<defs>
<clipPath id="clip0_426_22">
<rect width="70" height="70" fill="white" transform="translate(0.5)"/>
</clipPath>
</defs>
</svg>
