<svg width="72" height="70" viewBox="0 0 72 70" fill="none" xmlns="http://www.w3.org/2000/svg">
<g clip-path="url(#clip0_426_28)">
<mask id="mask0_426_28" style="mask-type:luminance" maskUnits="userSpaceOnUse" x="0" y="0" width="71" height="70">
<path d="M70.5562 0H0.5V70H70.5562V0Z" fill="white"/>
</mask>
<g mask="url(#mask0_426_28)">
<path d="M42.7796 0H28.2756C25.8116 0 23.8516 1.96002 23.8516 4.42402V18.928C23.8516 21.392 25.8116 23.352 28.2756 23.352H42.7796C45.2436 23.352 47.2036 21.392 47.2036 18.928V4.42402C47.2036 1.96002 45.1876 0 42.7796 0Z" fill="#2124B1"/>
<path d="M28.2756 70H42.7796C45.2436 70 47.2036 68.0399 47.2036 65.5759V51.0719C47.2036 48.6079 45.2436 46.6479 42.7796 46.6479H28.2756C25.8116 46.6479 23.8516 48.6079 23.8516 51.0719V65.5759C23.8516 67.9839 25.8676 70 28.2756 70Z" fill="#2124B1"/>
<path d="M47.2031 27.7199V42.2239C47.2031 44.6879 49.1631 46.6479 51.6271 46.6479H66.1311C68.5951 46.6479 70.5551 44.6879 70.5551 42.2239V27.7199C70.5551 25.2559 68.5951 23.2959 66.1311 23.2959H51.6271C49.1631 23.2959 47.2031 25.3119 47.2031 27.7199Z" fill="#2124B1"/>
<path d="M0.5 27.7199V42.2239C0.5 44.6879 2.46002 46.6479 4.92402 46.6479H19.4281C21.8921 46.6479 23.8521 44.6879 23.8521 42.2239V27.7199C23.8521 25.2559 21.8921 23.2959 19.4281 23.2959H4.92402C2.51602 23.2959 0.5 25.3119 0.5 27.7199Z" fill="#2124B1"/>
</g>
</g>
<defs>
<clipPath id="clip0_426_28">
<rect width="71" height="70" fill="white" transform="translate(0.5)"/>
</clipPath>
</defs>
</svg>
